inDegrees=no
num_controls=7
num_derivatives=13
num_iterations=88
num_multipliers=7
num_parameters=0
num_slacks=7
num_states=26
objective=0.453650
objective_accelerations=0.069387
objective_balance=0.001863
objective_effort=0.021205
objective_height=0.352183
objective_ligament=0.009012
solver_duration=1241.916511
status=Solve_Succeeded
success=true
DataType=double
version=3
OpenSimVersion=4.5
endheader
time	/jointset/ground_pelvis/pelvis_tilt/value	/jointset/ground_pelvis/pelvis_tx/value	/jointset/ground_pelvis/pelvis_ty/value	/jointset/hip_l/hip_flexion_l/value	/jointset/hip_l/hip_adduction_l/value	/jointset/hip_l/hip_rotation_l/value	/jointset/back/lumbar_extension/value	/jointset/patellofemoral_l/patellar_flexion_l/value	/jointset/knee_l/knee_flexion_l/value	/jointset/knee_l/knee_adduction_l/value	/jointset/knee_l/knee_rotation_l/value	/jointset/ankle_l/ankle_angle_l/value	/jointset/subtalar_l/subtalar_angle_l/value	/jointset/ground_pelvis/pelvis_tilt/speed	/jointset/ground_pelvis/pelvis_tx/speed	/jointset/ground_pelvis/pelvis_ty/speed	/jointset/hip_l/hip_flexion_l/speed	/jointset/hip_l/hip_adduction_l/speed	/jointset/hip_l/hip_rotation_l/speed	/jointset/back/lumbar_extension/speed	/jointset/patellofemoral_l/patellar_flexion_l/speed	/jointset/knee_l/knee_flexion_l/speed	/jointset/knee_l/knee_adduction_l/speed	/jointset/knee_l/knee_rotation_l/speed	/jointset/ankle_l/ankle_angle_l/speed	/jointset/subtalar_l/subtalar_angle_l/speed	/forceset/tau_hip_flexion_l	/forceset/tau_hip_adduction_l	/forceset/tau_hip_rotation_l	/forceset/tau_knee_flexion_l	/forceset/tau_ankle_angle_l	/forceset/tau_subtalar_angle_l	/forceset/tau_lumbar_extension	lambda_cid13_p0	lambda_cid13_p1	lambda_cid13_p2	lambda_cid13_p3	lambda_cid13_p4	lambda_cid13_p5	lambda_cid14_p0	/jointset/ground_pelvis/pelvis_tilt/accel	/jointset/ground_pelvis/pelvis_tx/accel	/jointset/ground_pelvis/pelvis_ty/accel	/jointset/hip_l/hip_flexion_l/accel	/jointset/hip_l/hip_adduction_l/accel	/jointset/hip_l/hip_rotation_l/accel	/jointset/back/lumbar_extension/accel	/jointset/patellofemoral_l/patellar_flexion_l/accel	/jointset/knee_l/knee_flexion_l/accel	/jointset/knee_l/knee_adduction_l/accel	/jointset/knee_l/knee_rotation_l/accel	/jointset/ankle_l/ankle_angle_l/accel	/jointset/subtalar_l/subtalar_angle_l/accel	gamma_cid13_p0	gamma_cid13_p1	gamma_cid13_p2	gamma_cid13_p3	gamma_cid13_p4	gamma_cid13_p5	gamma_cid14_p0
0.5	-0.3637794714635288	-0.05823279714959712	0.7377692652274982	1.281753559996581	-0.3423731487574991	-0.01122489556394702	-0.4148472566686384	0.9493487413331193	0.9493487413335349	0.0004270476303061902	-0.1745261913924593	0.1591070744900367	0.1296989047453313	-1.137894259957547	-0.3312397352967903	-0.6584608174151223	3.104425885755375	0.07142488231623167	0.5526573140603159	-0.2563473092037001	1.944013375506693	1.944013375506714	0.2898752298808752	0.0009386963236610959	0.121988955452592	0.1186640422687563	-0.1497230901936036	0.02480772763765742	-0.004501327687218909	-0.2004893989733698	0.1088675813518055	0.002979309099994147	0.1442985558913938	9.748607539479561	1.375122911765797	-5.498626823529206	-13.87674077243672	-437.4962776706848	-53.94710493224488	-5.05406209037183	0.8022184355250521	0.9245380780729059	-0.4569559454661027	-2.086715351115576	0.2807695399167849	-0.6146104696003712	1.79039064885905	-1.664816767294989	-1.66481676729493	-0.3188396185407821	0.07774513333456207	-0.5436331828628159	0.1692061022262098	-1.728383626583204e-07	-1.941540643100757e-06	1.339929899208101e-07	-2.988676607003963e-07	-5.009447905977325e-07	8.318514522741703e-08	-3.594748731483088e-07
0.51	-0.3751156499386748	-0.06149868354847049	0.7311634961556917	1.312687914123306	-0.3416464202372526	-0.005733263865559181	-0.4173227269501239	0.9687022919626509	0.968702291962653	0.003309917157402728	-0.1745171602284184	0.1602989383797753	0.1308919378777706	-1.129180333468303	-0.3219160102184492	-0.6625353044659424	3.082027420241138	0.07388435414082213	0.5457168149176713	-0.2387805128164865	1.92641252255739	1.926412522557393	0.286575285048718	0.0009087766148157128	0.11633293408156	0.119879242516593	-0.1563859205588779	0.02513914316040663	-0.004699564116188422	-0.202524413626305	0.1093664964390877	0.003042737515089122	0.1490418345941479	9.642902901767037	1.548966703010785	-5.735237621898325	-13.78083604871838	-441.9717731005211	-54.05510348084152	-4.433533373541134	0.9301034385131381	0.939410010211827	-0.3590995265815827	-2.379081845936756	0.2236131546025492	-0.7268047764022334	1.734759275189013	-1.850309348428585	-1.850309348431363	-0.3546166998808986	-0.03747458143484966	-0.5843519885879156	0.08881665168525674	-2.565661970049139e-08	-2.652554677958877e-06	-1.709313056683667e-06	-5.413610518343588e-07	-2.729026283962687e-07	-3.806946638835938e-07	-2.106033790644173e-07
0.52	-0.3863598644123524	-0.06467070863906098	0.7245217013250385	1.343385749656023	-0.3408960815685837	-0.0003096441865594604	-0.4196235422394282	0.9878713161047502	0.9878713161043402	0.006155978279313322	-0.1745072510731678	0.1614326889809304	0.1320953509458128	-1.119501459663488	-0.312467473640215	-0.6656659691844298	3.057122166952553	0.07614691200030431	0.5390549101827954	-0.2214163107678089	1.90710807802086	1.907108078020845	0.2825135488434525	0.001114294568337294	0.1103662977359459	0.1207400293893427	-0.1630487509240858	0.02547055868316949	-0.004897800545120453	-0.2045594282792425	0.1098654115263615	0.003106165930195752	0.1537851132969709	9.538822759361338	1.715915783108369	-5.963199917477495	-13.69941228085476	-446.422210189428	-54.1970587092742	-3.860185670989611	0.9952078986394144	0.9495003780515253	-0.2681914789995306	-2.58807290598481	0.2413867468951181	-0.5588915880466419	1.749871781151892	-2.005535084740236	-2.005535084740207	-0.4711978931624556	0.1248326658079388	-0.6057561777792506	0.09832342720880813	-1.611214158595599e-08	-2.461483075251573e-06	-1.693456615301381e-06	-5.254082919165957e-07	-2.351897258245518e-07	-3.677942160024692e-07	-1.877128337626383e-07
0.53	-0.3975027848779086	-0.06774753078338724	0.7178533102508541	1.37382242604429	-0.3401238371568616	0.005047763719593125	-0.4217515685749978	1.006839320705292	1.006839320705387	0.008959106578351864	-0.174494454597354	0.1625058449253694	0.1333061306851849	-1.108936069973361	-0.3028650117035017	-0.6678519448596835	3.02980617755611	0.07827729079848436	0.5323318916106624	-0.2042277598485383	1.886248718430555	1.886248718430539	0.2781329284825292	0.001406978213202684	0.1042708485371927	0.1213880578703458	-0.1693353734059781	0.0253222131542814	-0.005172715290748836	-0.2072945167912294	0.1115194792119758	0.003187480003520773	0.1582667681178407	9.811324702918984	1.842124451814946	-6.222318712307306	-14.03641379966321	-450.9293381642015	-54.49349265065137	-3.33306200138591	1.109151329051859	0.970307223871454	-0.1697985690677264	-2.864438995360866	0.1956541242845362	-0.7433921524060829	1.697526221948355	-2.162719806785038	-2.162719806785082	-0.4188342374501402	-0.02451764701204445	-0.6106601736870929	0.04443927566881131	-1.767386988372623e-08	-2.26706935068788e-06	-1.576312726703971e-06	-4.997389460002238e-07	-2.163864390994274e-07	-3.180256933979626e-07	-1.793009939551842e-07
0.54	-0.4085356620815948	-0.07072739068386831	0.7111678598284612	1.403973727130821	-0.3393309308215548	0.01033506440789952	-0.4237088735064459	1.025591415027807	1.025591415028405	0.01171896064780243	-0.1744799320572645	0.1635182022012682	0.1345226700527914	-1.097492807289128	-0.29307502487117	-0.6690778388261188	3.000047106604198	0.08027929671686729	0.5250334666141488	-0.1872720299439154	1.863926022415875	1.863926022415858	0.2738587029258905	0.001459507424549833	0.09820656402788897	0.1218919550362569	-0.1756219958878098	0.02517386762539435	-0.005447630036350385	-0.2100296053032204	0.1131735468975792	0.003268794076842367	0.162748422938775	10.08385850534552	1.962116851981139	-6.473353787129349	-14.3895141717686	-455.4432466772845	-54.82329342130734	-2.850975329764581	1.170782497460417	0.9870053571751951	-0.07617513723588552	-3.076689217078543	0.2157121709356719	-0.6739728729227676	1.70330757822238	-2.298202369615165	-2.29820236961526	-0.449918932305537	0.07680177910424693	-0.5995232398893761	0.06949716419035805	-3.15233159142603e-08	-2.068957959389458e-06	-1.347106130549402e-06	-4.633193347236889e-07	-2.185044294811716e-07	-2.27466960461203e-07	-1.869081474606005e-07
0.55	-0.4194499171466594	-0.07360867238467454	0.704474917091349	1.433815726452727	-0.3385186993844584	0.01554762913182449	-0.4254980785495782	1.044113064304771	1.044113064304726	0.01443583546611622	-0.1744653418204132	0.1644698527683433	0.1357433628113016	-1.085223017248217	-0.2831746891988319	-0.6693520640350522	2.967979434558693	0.08214609159354491	0.5174126508928456	-0.1706455030814605	1.840161142673636	1.840161142673646	0.2695233442801905	0.001445803015875913	0.09210811586530029	0.1222146006222758	-0.1819485866725332	0.02520221544426995	-0.005819960910665584	-0.212227495342626	0.1138373856316832	0.003209420537526971	0.1670993505246454	10.02640792758929	2.167045198591163	-6.699158160788963	-14.30666530724875	-459.8016878875528	-54.92155235534818	-2.412528024905045	1.27531657614818	0.9924528951110114	0.02070653952031854	-3.327843990140219	0.1694131880790535	-0.8163420190267515	1.630846580421895	-2.451996110476561	-2.451996110472476	-0.4246703029377535	-0.04258063512599551	-0.6174189722196766	0.009306320698385911	-6.07999294548722e-08	-1.783926379450917e-06	-8.753782943047123e-07	-3.966091577522989e-07	-2.364090677951345e-07	-2.075406293651913e-08	-2.166492784352122e-07
0.5600000000000001	-0.4302374264475679	-0.07639076968418777	0.697783982652596	1.463325841495813	-0.3376883499901844	0.02068194447907336	-0.4271233140560507	1.062389791717521	1.062389791716833	0.01710949150353945	-0.1744513134445036	0.1653600361802375	0.1369664136386501	-1.07214365445763	-0.273238144612569	-0.6686761791542909	2.933670250839047	0.08390288815203409	0.5093835912798328	-0.1544781226124078	1.814941649573464	1.8149416495735	0.2652149467450683	0.001347135236288399	0.08591313299166814	0.1223635688039221	-0.1882751774572035	0.02523056326313703	-0.006192291784862825	-0.2144253853820329	0.1145012243657748	0.003150046998195827	0.1714502781105733	9.968396434678468	2.365276509430891	-6.916134107251423	-14.23883995855151	-464.1763513856582	-55.05991071895933	-2.016256670786039	1.332697047395756	0.9942471399601421	0.1138468807030349	-3.524991551906745	0.1937125072979688	-0.7556216512647381	1.611478299541983	-2.589125041201967	-2.589125041202102	-0.4445267101899687	0.05980910492146942	-0.6188301820980866	0.03476168331580826	-1.085891440075769e-07	-1.394590573144236e-06	-1.12624969951888e-07	-2.935503019470839e-07	-2.732576836277593e-07	3.253438320936695e-07	-2.729511823728574e-07
0.5700000000000001	-0.4408902428813268	-0.07907336020589449	0.6911045345968729	1.492481899614591	-0.3368412645726974	0.02573622840943416	-0.428589199440796	1.080407371279157	1.080407371278942	0.01973805501879167	-0.174437685017355	0.1661879181298241	0.1381897601808093	-1.058291017375727	-0.2632774423286656	-0.6670548055551948	2.897176553658459	0.08549144929214311	0.5013927052174503	-0.1387887879478368	1.788350081601943	1.788350081601909	0.260517702432402	0.001354363238622196	0.07966651233442087	0.1222781260890591	-0.1944614887742295	0.02510054522693116	-0.00660400163894228	-0.216623942183033	0.1152053329286342	0.003001454931694535	0.1756406490320535	9.920973054990775	2.597315286870677	-7.134974030902044	-14.16973069051327	-468.4642931106897	-55.1317899271533	-1.660515058698172	1.430795457478147	0.9973123317341794	0.2100177445096333	-3.766329271803939	0.138121520746663	-0.8331621306489805	1.534186008248627	-2.727738888170319	-2.72773888818077	-0.4795876000651793	-0.03235794206921323	-0.6271551356163849	-0.03418967508609501	-1.327543824343605e-07	-1.108091051241684e-06	3.448687854386654e-07	-2.246347917581642e-07	-2.83318284279964e-07	5.387994264283155e-07	-2.981174971890476e-07
0.58	-0.45140068326049	-0.08165627759293638	0.6844460473061399	1.521262066667436	-0.335978954823132	0.03070813546978265	-0.4299008864872262	1.09815232191847	1.098152321918722	0.02232019322926636	-0.1744246918281725	0.1669534184472227	0.13941145381058	-1.043668443538195	-0.2533035176796042	-0.6644840261562296	2.858492037651109	0.08694775456742491	0.4929082172781074	-0.1236384549499043	1.760415865108694	1.760415865108589	0.2559298857893269	0.001220087642611932	0.07343680655403939	0.1220329863262448	-0.200647800091204	0.02497052719072041	-0.007015711493005411	-0.2188224989840384	0.1159094414914823	0.002852862865183032	0.1798310199535895	9.872219846233602	2.821186897656371	-7.342917247576512	-14.11943867749028	-472.7856879288969	-55.2644447441651	-1.343609229842635	1.486684398521706	0.9968916129917418	0.3037280406768952	-3.963155317259236	0.1672613343324939	-0.8543420266568784	1.503677966214302	-2.857654745547739	-2.857654745548012	-0.4226411762716862	0.03150838525259419	-0.6154472067249397	0.002822273725510324	-1.261535124180851e-07	-9.555178532142708e-07	4.048151952039479e-07	-2.001850339997674e-07	-2.584921674879024e-07	5.795115593920274e-07	-2.827351378005537e-07
